<svg xmlns="http://www.w3.org/2000/svg" xmlns:xlink="http://www.w3.org/1999/xlink" width="2677" zoomAndPan="magnify" viewBox="0 0 2007.75 749.999995" height="1000" preserveAspectRatio="xMidYMid meet" version="1.0"><defs><clipPath id="f0b13ce6fc"><path d="M 30 215.417969 L 813 215.417969 L 813 749.953125 L 30 749.953125 Z M 30 215.417969 " clip-rule="nonzero"/></clipPath><clipPath id="89bfc5e7b0"><path d="M 481.867188 215.417969 L 783.753906 215.417969 C 794.898438 215.417969 805.0625 221.789062 809.921875 231.816406 C 814.78125 241.84375 813.484375 253.765625 806.578125 262.511719 L 459.039062 702.859375 C 435.570312 732.601562 399.769531 749.953125 361.882812 749.953125 L 59.992188 749.953125 C 48.847656 749.953125 38.6875 743.585938 33.828125 733.558594 C 28.964844 723.53125 30.265625 711.609375 37.167969 702.859375 L 384.707031 262.511719 C 408.179688 232.773438 443.980469 215.417969 481.867188 215.417969 Z M 481.867188 215.417969 " clip-rule="nonzero"/></clipPath><clipPath id="f7d03eba25"><path d="M 200 0.046875 L 983 0.046875 L 983 534.582031 L 200 534.582031 Z M 200 0.046875 " clip-rule="nonzero"/></clipPath><clipPath id="c6504c1a3b"><path d="M 651.742188 0.046875 L 953.628906 0.046875 C 964.773438 0.046875 974.9375 6.414062 979.796875 16.441406 C 984.65625 26.46875 983.359375 38.390625 976.457031 47.140625 L 628.917969 487.488281 C 605.445312 517.226562 569.644531 534.582031 531.757812 534.582031 L 229.867188 534.582031 C 218.726562 534.582031 208.5625 528.210938 203.703125 518.183594 C 198.84375 508.15625 200.140625 496.234375 207.042969 487.488281 L 554.582031 47.140625 C 578.054688 17.398438 613.855469 0.046875 651.742188 0.046875 Z M 651.742188 0.046875 " clip-rule="nonzero"/></clipPath><clipPath id="326f1b5d5d"><path d="M 476.101562 482.6875 L 1286 482.6875 L 1286 749.953125 L 476.101562 749.953125 Z M 476.101562 482.6875 " clip-rule="nonzero"/></clipPath><clipPath id="cb947ac3ca"><path d="M 716.753906 482.6875 L 1256.285156 482.6875 C 1267.425781 482.6875 1277.589844 489.054688 1282.449219 499.082031 C 1287.308594 509.109375 1286.011719 521.03125 1279.109375 529.777344 L 1142.507812 702.859375 C 1119.035156 732.601562 1083.234375 749.953125 1045.347656 749.953125 L 505.816406 749.953125 C 494.675781 749.953125 484.511719 743.585938 479.652344 733.558594 C 474.792969 723.53125 476.089844 711.609375 482.992188 702.859375 L 619.59375 529.777344 C 643.066406 500.039062 678.867188 482.6875 716.753906 482.6875 Z M 716.753906 482.6875 " clip-rule="nonzero"/></clipPath><clipPath id="85e0744d6a"><path d="M 1569 0.046875 L 1977 0.046875 L 1977 267.3125 L 1569 267.3125 Z M 1569 0.046875 " clip-rule="nonzero"/></clipPath><clipPath id="c7b86b22dd"><path d="M 1809.589844 0.046875 L 1947.507812 0.046875 C 1958.652344 0.046875 1968.8125 6.414062 1973.671875 16.441406 C 1978.535156 26.46875 1977.234375 38.390625 1970.332031 47.140625 L 1833.730469 220.222656 C 1810.257812 249.960938 1774.457031 267.3125 1736.570312 267.3125 L 1598.652344 267.3125 C 1587.507812 267.3125 1577.34375 260.945312 1572.484375 250.917969 C 1567.625 240.890625 1568.921875 228.96875 1575.828125 220.222656 L 1712.429688 47.140625 C 1735.902344 17.398438 1771.703125 0.046875 1809.589844 0.046875 Z M 1809.589844 0.046875 " clip-rule="nonzero"/></clipPath><clipPath id="1fae238bab"><path d="M 1569 482.6875 L 1977.144531 482.6875 L 1977.144531 749.953125 L 1569 749.953125 Z M 1569 482.6875 " clip-rule="nonzero"/></clipPath><clipPath id="9e59b8c08e"><path d="M 1741.46875 482.6875 L 1598.652344 482.6875 C 1587.40625 482.6875 1577.140625 489.078125 1572.179688 499.167969 C 1567.214844 509.261719 1568.421875 521.292969 1575.289062 530.199219 L 1708.066406 702.441406 C 1731.167969 732.402344 1766.855469 749.953125 1804.6875 749.953125 L 1947.507812 749.953125 C 1958.753906 749.953125 1969.019531 743.5625 1973.980469 733.46875 C 1978.941406 723.378906 1977.738281 711.347656 1970.871094 702.441406 L 1838.089844 530.199219 C 1814.992188 500.238281 1779.300781 482.6875 1741.46875 482.6875 Z M 1741.46875 482.6875 " clip-rule="nonzero"/></clipPath><clipPath id="4ec9f5a638"><path d="M 1197 0.046875 L 1605 0.046875 L 1605 267.3125 L 1197 267.3125 Z M 1197 0.046875 " clip-rule="nonzero"/></clipPath><clipPath id="0378652747"><path d="M 1369.351562 0.046875 L 1226.53125 0.046875 C 1215.289062 0.046875 1205.019531 6.4375 1200.058594 16.53125 C 1195.097656 26.621094 1196.300781 38.652344 1203.167969 47.558594 L 1335.949219 219.800781 C 1359.046875 249.761719 1394.738281 267.3125 1432.570312 267.3125 L 1575.386719 267.3125 C 1586.632812 267.3125 1596.898438 260.921875 1601.859375 250.832031 C 1606.824219 240.738281 1605.617188 228.707031 1598.753906 219.800781 L 1465.972656 47.558594 C 1442.875 17.597656 1407.183594 0.046875 1369.351562 0.046875 Z M 1369.351562 0.046875 " clip-rule="nonzero"/></clipPath><clipPath id="f5378bd61a"><path d="M 1435.183594 349.054688 L 1904 349.054688 L 1904 616.320312 L 1435.183594 616.320312 Z M 1435.183594 349.054688 " clip-rule="nonzero"/></clipPath><clipPath id="fb719450ce"><path d="M 1697.984375 349.054688 L 1435.183594 349.054688 L 1641.21875 616.320312 L 1904.023438 616.320312 Z M 1697.984375 349.054688 " clip-rule="nonzero"/></clipPath><clipPath id="8bca73ef6f"><path d="M 1189 482.6875 L 1596.777344 482.6875 L 1596.777344 749.953125 L 1189 749.953125 Z M 1189 482.6875 " clip-rule="nonzero"/></clipPath><clipPath id="ea7cdcc0ab"><path d="M 1429.21875 482.6875 L 1567.140625 482.6875 C 1578.28125 482.6875 1588.445312 489.054688 1593.304688 499.082031 C 1598.164062 509.109375 1596.867188 521.03125 1589.964844 529.777344 L 1453.363281 702.859375 C 1429.890625 732.601562 1394.089844 749.953125 1356.203125 749.953125 L 1218.28125 749.953125 C 1207.140625 749.953125 1196.976562 743.585938 1192.117188 733.558594 C 1187.257812 723.53125 1188.554688 711.609375 1195.457031 702.859375 L 1332.058594 529.777344 C 1355.53125 500.039062 1391.332031 482.6875 1429.21875 482.6875 Z M 1429.21875 482.6875 " clip-rule="nonzero"/></clipPath><clipPath id="9aa11edf0f"><path d="M 1278.195312 330.496094 L 1747 330.496094 L 1747 597.761719 L 1278.195312 597.761719 Z M 1278.195312 330.496094 " clip-rule="nonzero"/></clipPath><clipPath id="23d0e2739b"><path d="M 1489.132812 330.496094 L 1747.035156 330.496094 L 1536.097656 597.761719 L 1278.195312 597.761719 Z M 1489.132812 330.496094 " clip-rule="nonzero"/></clipPath><clipPath id="773c5e4c44"><path d="M 1420.921875 149.535156 L 1890 149.535156 L 1890 416.800781 L 1420.921875 416.800781 Z M 1420.921875 149.535156 " clip-rule="nonzero"/></clipPath><clipPath id="cd3b691407"><path d="M 1631.859375 149.535156 L 1889.765625 149.535156 L 1678.828125 416.800781 L 1420.921875 416.800781 Z M 1631.859375 149.535156 " clip-rule="nonzero"/></clipPath><clipPath id="6dd3d2ef1c"><path d="M 1307.238281 182.476562 L 1776 182.476562 L 1776 449.742188 L 1307.238281 449.742188 Z M 1307.238281 182.476562 " clip-rule="nonzero"/></clipPath><clipPath id="91e3094c15"><path d="M 1570.042969 182.476562 L 1307.238281 182.476562 L 1513.273438 449.742188 L 1776.078125 449.742188 Z M 1570.042969 182.476562 " clip-rule="nonzero"/></clipPath></defs><g clip-path="url(#f0b13ce6fc)"><g clip-path="url(#89bfc5e7b0)"><path fill="#000000" d="M 0 215.417969 L 843.5625 215.417969 L 843.5625 749.953125 L 0 749.953125 Z M 0 215.417969 " fill-opacity="1" fill-rule="nonzero"/></g></g><g clip-path="url(#f7d03eba25)"><g clip-path="url(#c6504c1a3b)"><path fill="#000000" d="M 169.875 0.046875 L 1013.4375 0.046875 L 1013.4375 534.582031 L 169.875 534.582031 Z M 169.875 0.046875 " fill-opacity="1" fill-rule="nonzero"/></g></g><g clip-path="url(#326f1b5d5d)"><g clip-path="url(#cb947ac3ca)"><path fill="#000000" d="M 445.824219 482.6875 L 1316.53125 482.6875 L 1316.53125 749.953125 L 445.824219 749.953125 Z M 445.824219 482.6875 " fill-opacity="1" fill-rule="nonzero"/></g></g><g clip-path="url(#85e0744d6a)"><g clip-path="url(#c7b86b22dd)"><path fill="#000000" d="M 1538.660156 0.046875 L 2007.421875 0.046875 L 2007.421875 267.3125 L 1538.660156 267.3125 Z M 1538.660156 0.046875 " fill-opacity="1" fill-rule="nonzero"/></g></g><g clip-path="url(#1fae238bab)"><g clip-path="url(#9e59b8c08e)"><path fill="#000000" d="M 1538.660156 482.6875 L 2007.421875 482.6875 L 2007.421875 749.953125 L 1538.660156 749.953125 Z M 1538.660156 482.6875 " fill-opacity="1" fill-rule="nonzero"/></g></g><g clip-path="url(#4ec9f5a638)"><g clip-path="url(#0378652747)"><path fill="#000000" d="M 1166.539062 0.046875 L 1635.300781 0.046875 L 1635.300781 267.3125 L 1166.539062 267.3125 Z M 1166.539062 0.046875 " fill-opacity="1" fill-rule="nonzero"/></g></g><g clip-path="url(#f5378bd61a)"><g clip-path="url(#fb719450ce)"><path fill="#000000" d="M 1435.183594 349.054688 L 1903.945312 349.054688 L 1903.945312 616.320312 L 1435.183594 616.320312 Z M 1435.183594 349.054688 " fill-opacity="1" fill-rule="nonzero"/></g></g><g clip-path="url(#8bca73ef6f)"><g clip-path="url(#ea7cdcc0ab)"><path fill="#000000" d="M 1158.289062 482.6875 L 1627.050781 482.6875 L 1627.050781 749.953125 L 1158.289062 749.953125 Z M 1158.289062 482.6875 " fill-opacity="1" fill-rule="nonzero"/></g></g><g clip-path="url(#9aa11edf0f)"><g clip-path="url(#23d0e2739b)"><path fill="#000000" d="M 1278.195312 330.496094 L 1746.957031 330.496094 L 1746.957031 597.761719 L 1278.195312 597.761719 Z M 1278.195312 330.496094 " fill-opacity="1" fill-rule="nonzero"/></g></g><g clip-path="url(#773c5e4c44)"><g clip-path="url(#cd3b691407)"><path fill="#000000" d="M 1420.921875 149.535156 L 1889.683594 149.535156 L 1889.683594 416.800781 L 1420.921875 416.800781 Z M 1420.921875 149.535156 " fill-opacity="1" fill-rule="nonzero"/></g></g><g clip-path="url(#6dd3d2ef1c)"><g clip-path="url(#91e3094c15)"><path fill="#000000" d="M 1307.238281 182.476562 L 1776 182.476562 L 1776 449.742188 L 1307.238281 449.742188 Z M 1307.238281 182.476562 " fill-opacity="1" fill-rule="nonzero"/></g></g></svg>